<svg xmlns="http://www.w3.org/2000/svg" xmlns:xlink="http://www.w3.org/1999/xlink" version="1.1" id="Layer_1" x="0px" y="0px" viewBox="0 0 516.6 516.6" style="enable-background:new 0 0 516.6 516.6;" xml:space="preserve" width="32" height="32">
    <style type="text/css">
	.st0{fill:#000000;}
</style>
    <g>
	<path class="st0" d="M404.6,506.6c-32.8,0-59.5-26.7-59.5-59.5c0-7.8,1.5-15.4,4.4-22.5H244.3c2.9,7,4.4,14.7,4.4,22.5   c0,32.8-26.7,59.5-59.5,59.5s-59.5-26.7-59.5-59.5c0-8.4,1.8-16.7,5.3-24.3c-26.4-6.6-45.6-30.6-45.6-58.4V71.9L27,45.6   c-4.6-1.9-8.1-5.5-10-10.1c-1.9-4.6-1.8-9.6,0.1-14.2c2.9-6.9,9.6-11.3,17-11.3c2.5,0,4.9,0.5,7.2,1.5l73.9,31.1l0.1,0.1   c0.1,0.1,0.3,0.1,0.4,0.2c0.3,0.1,0.6,0.3,0.9,0.4l0.7,0.4l0.2,0.2c0.3,0.2,0.5,0.3,0.7,0.5l0.4,0.3l0.2,0.2   c0.1,0.1,0.2,0.2,0.4,0.3c0.1,0.1,0.2,0.1,0.3,0.2c0.6,0.4,1,0.8,1.2,1l1.8,1.8l0.2,0.4c0.1,0.2,0.3,0.4,0.4,0.7   c0.1,0.2,0.2,0.3,0.3,0.5c0,0,0,0,0,0c0.3,0.4,0.5,0.7,0.6,1c0.1,0.2,0.2,0.4,0.3,0.6c0.3,0.5,0.5,1,0.7,1.6l0.3,0.8v0.1l0.4,1.2   v0.3c0,0,0.1,0.3,0.1,0.4l0.2,0.6v0.6c0,0,0,0.1,0,0.1c0.1,0.3,0.1,0.5,0.1,0.8c0.1,0.8,0.1,1.5,0.1,2.1v43L461.8,149   c0.2,0,0.5,0.1,0.7,0.1c0.3,0,0.7,0.1,1.2,0.2c0,0,0,0,0.1,0c0.7,0.1,1.3,0.3,1.7,0.5c0.3,0.1,0.6,0.2,1.1,0.4l2.5,1.3l0.2,0.2   c0.1,0.1,0.2,0.1,0.4,0.2c0.3,0.2,0.6,0.4,0.8,0.5c0.3,0.2,0.5,0.3,0.6,0.5l0.2,0.1l0.9,0.9c0.3,0.2,0.7,0.6,1.1,1.1   c0.1,0.1,0.3,0.3,0.4,0.5c0.1,0.1,0.2,0.2,0.2,0.3c0.2,0.3,0.5,0.6,0.8,1.1c0.1,0.2,0.3,0.4,0.5,0.7c0.1,0.2,0.3,0.4,0.4,0.7   l0.1,0.3c0.2,0.3,0.4,0.7,0.5,0.9l0.2,0.3l0.1,0.3l0,0c0.2,0.4,0.3,0.8,0.4,1.1c0.1,0.2,0.2,0.4,0.2,0.6l0.1,0.2   c0.1,0.2,0.1,0.3,0.1,0.5l0.3,0.6v0.7c0,0.2,0.1,0.3,0.1,0.6c0,0,0,0.1,0,0.1c0.2,0.8,0.2,1.4,0.2,1.7v114   c0,33.2-27,60.2-60.2,60.2H149.6c-8,0-15.9-1.6-23.2-4.6v28.6c0,12.8,10.4,23.2,23.2,23.2h255c32.8,0,59.5,26.7,59.5,59.5   S437.4,506.6,404.6,506.6z M404.7,424.5c-12.4,0-22.5,10.1-22.5,22.5s10.1,22.5,22.5,22.5s22.5-10.1,22.5-22.5   S417.1,424.5,404.7,424.5z M189.3,424.5c-12.4,0-22.5,10.1-22.5,22.5s10.1,22.5,22.5,22.5s22.5-10.1,22.5-22.5   S201.7,424.5,189.3,424.5z M126.4,280.2c0,12.8,10.4,23.2,23.2,23.2h268.1c12.8,0,23.2-10.5,23.2-23.3v-96.7L126.4,140V280.2z"/>
</g>
</svg>