<?xml version="1.0" standalone="no"?>
<!DOCTYPE svg PUBLIC "-//W3C//DTD SVG 20010904//EN"
 "http://www.w3.org/TR/2001/REC-SVG-20010904/DTD/svg10.dtd">
<svg version="1.0" xmlns="http://www.w3.org/2000/svg"
 width="192.000000pt" height="192.000000pt" viewBox="0 0 192.000000 192.000000"
 preserveAspectRatio="xMidYMid meet">

<g transform="translate(0.000000,192.000000) scale(0.100000,-0.100000)"
fill="#000000" stroke="none">
<path d="M565 1846 c-18 -13 -19 -18 -7 -58 32 -112 44 -186 38 -246 -7 -77
-8 -79 -79 -141 -85 -74 -163 -167 -200 -238 -17 -35 -34 -63 -37 -63 -3 0
-22 22 -42 49 -48 64 -92 97 -151 113 -87 23 -82 47 -85 -413 -1 -222 0 -414
3 -425 7 -30 29 -36 81 -23 50 13 144 91 170 140 8 16 18 29 22 29 4 0 17 -17
29 -38 37 -65 100 -139 165 -193 35 -28 65 -56 66 -61 2 -4 -26 -22 -61 -39
-36 -16 -68 -37 -72 -47 -9 -25 26 -64 89 -96 49 -25 68 -30 134 -29 82 0 175
22 231 54 30 18 39 18 95 8 33 -7 113 -12 176 -12 207 -1 351 54 475 178 102
102 165 231 120 249 -8 3 -50 0 -92 -6 -66 -9 -87 -9 -134 5 -92 27 -208 125
-291 245 l-30 44 37 53 c58 85 163 183 231 216 52 26 74 31 131 30 37 0 83 -5
102 -11 49 -14 75 2 67 43 -14 74 -87 199 -164 278 -133 140 -284 196 -502
187 l-117 -5 -18 34 c-43 79 -174 174 -261 188 -21 3 -53 8 -69 11 -18 2 -39
-2 -50 -10z m211 -128 c35 -22 104 -96 104 -110 0 -3 -19 -11 -42 -18 -24 -7
-69 -25 -100 -41 l-58 -29 0 37 c0 36 -10 108 -26 180 l-6 33 43 -13 c24 -8
62 -25 85 -39z m538 -200 c124 -42 231 -131 298 -247 l30 -51 -60 0 c-116 0
-232 -60 -344 -178 -67 -72 -148 -185 -148 -208 0 -28 89 -150 166 -228 104
-105 183 -146 296 -153 l78 -6 -23 -31 c-100 -141 -270 -216 -491 -216 l-111
0 33 26 c39 31 43 69 8 85 -21 10 -34 4 -112 -47 -132 -87 -191 -108 -296
-109 -95 0 -116 9 -78 33 14 9 52 43 85 76 48 48 65 75 83 128 25 69 23 102
-5 112 -32 13 -52 -4 -67 -58 -9 -30 -24 -64 -34 -76 l-19 -23 -44 30 c-52 36
-146 134 -176 183 -12 19 -31 60 -43 90 -38 95 -66 95 -116 0 -37 -71 -111
-160 -132 -160 -9 0 -12 87 -12 345 0 337 0 345 19 336 35 -19 84 -80 120
-148 32 -61 39 -68 66 -68 27 0 31 5 53 65 81 215 274 392 531 484 138 50 323
56 445 14z"/>
<path d="M1180 1413 c-75 -38 -89 -142 -28 -203 25 -25 38 -30 78 -30 41 0 53
5 79 30 97 98 -9 264 -129 203z m70 -98 c15 -18 5 -35 -20 -35 -22 0 -34 15
-26 35 7 19 30 19 46 0z"/>
<path d="M917 1161 c-29 -10 -86 -101 -107 -169 -38 -121 -18 -261 52 -363 42
-61 71 -76 98 -49 23 23 20 33 -26 102 -41 60 -54 105 -54 183 0 80 13 123 59
191 39 59 43 87 12 103 -9 5 -24 6 -34 2z"/>
<path d="M681 1084 c-20 -46 -41 -146 -41 -205 0 -67 16 -95 52 -86 28 7 38
37 38 112 0 24 9 71 19 106 23 73 16 99 -28 99 -20 0 -31 -7 -40 -26z"/>
<path d="M680 705 c-16 -19 -5 -61 17 -67 25 -7 42 1 53 23 23 43 -39 82 -70
44z"/>
<path d="M1130 390 c-11 -11 -20 -24 -20 -30 0 -5 9 -19 20 -30 16 -16 25 -18
40 -10 26 14 32 27 25 50 -11 34 -41 44 -65 20z"/>
<path d="M1373 959 c-9 -9 -13 -50 -13 -131 0 -106 2 -118 20 -128 26 -14 88
-3 136 24 l38 21 49 -24 c39 -20 65 -25 127 -25 89 0 130 19 168 75 40 58 17
140 -51 176 -49 27 -187 25 -250 -4 l-47 -22 -34 20 c-43 25 -126 36 -143 18z
m437 -82 c37 -18 39 -61 4 -84 -53 -34 -211 -12 -228 32 -6 17 24 44 60 55 44
13 136 11 164 -3z m-332 -13 c26 -18 28 -37 6 -58 -29 -30 -44 -20 -44 29 0
49 5 53 38 29z"/>
</g>
</svg>
